<?xml version="1.0" encoding="UTF-8" standalone="no"?><!DOCTYPE svg PUBLIC "-//W3C//DTD SVG 1.1//EN" "http://www.w3.org/Graphics/SVG/1.1/DTD/svg11.dtd"><svg width="100%" height="100%" viewBox="0 0 534 534" version="1.1" xmlns="http://www.w3.org/2000/svg" xmlns:xlink="http://www.w3.org/1999/xlink" xml:space="preserve" xmlns:serif="http://www.serif.com/" style="fill-rule:evenodd;clip-rule:evenodd;stroke-linejoin:round;stroke-miterlimit:2;"><g><path id="bottle" d="M361.475,500L345.42,500C345.42,500 397.445,408.814 409.629,384.394C413.749,376.135 414.755,366.422 414.811,357.192C414.867,347.94 413.597,337.739 409.965,328.881C404.412,315.337 386.708,290.296 381.491,275.93C377.569,265.129 378.533,251.667 383.975,241.546C394.154,222.617 433.577,153.196 433.577,153.196C433.577,153.196 424.275,144.228 413.286,136.739C413.259,136.72 413.972,120.738 413.972,120.738C413.972,120.738 430.89,130.715 446.426,143.502C448.474,145.188 463.663,119.285 462.915,116.971C461.408,112.305 409.153,81.022 403.934,81.974C401.563,82.407 387.53,107.306 387.614,109.894C387.868,117.746 385.966,125.459 385.966,125.459C385.966,125.459 345.201,195.112 333.809,214.953C327.999,225.071 314.657,232.461 302.99,232.461C287.383,232.461 255.962,232.491 241.456,234.605C232.354,235.932 223.718,240.216 215.955,245.15C208.18,250.091 199.819,256.181 194.809,264.25C168.789,306.158 57.855,500 57.855,500L42.651,500C42.651,500 156.534,299.289 183.155,256.491C189.12,246.9 198.825,239.429 208.005,233.455C217.177,227.486 227.424,222.35 238.234,220.645C253.925,218.17 287.409,219.229 302.155,218.606C310.694,218.246 319.15,211.907 323.66,204.648C333.561,188.715 364.316,135.568 372.453,119.415C373.984,116.375 371.366,110.297 372.482,107.732C376.062,99.503 390.145,75.922 395.856,69.16C398.238,66.339 403.272,65.92 406.75,67.158C420.6,72.089 465.347,97.357 475.45,107.658C478.372,110.637 479.236,115.692 477.772,119.405C474.675,127.261 461.916,148.036 456.87,154.793C454.735,157.651 447.754,157.784 445.812,160.776C435.736,176.298 406.152,229.733 396.41,247.927C392.365,255.481 394.075,269.343 397.292,275.329C403.785,287.413 419.308,311.406 424.729,325.208C428.791,335.548 429.941,347.324 429.821,358.142C429.702,368.96 428.767,380.384 424.013,390.118C411.472,415.797 361.475,500 361.475,500Z" style="fill:#00052b;"/><path d="M361.475,500L345.42,500C345.42,500 397.445,408.814 409.629,384.394C413.749,376.135 414.755,366.422 414.811,357.192C414.867,347.94 413.597,337.739 409.965,328.881C404.412,315.337 386.708,290.296 381.491,275.93C377.569,265.129 378.533,251.667 383.975,241.546C394.154,222.617 433.577,153.196 433.577,153.196C433.577,153.196 424.275,144.228 413.286,136.739C413.259,136.72 413.972,120.738 413.972,120.738C413.972,120.738 430.89,130.715 446.426,143.502C448.474,145.188 463.663,119.285 462.915,116.971C461.408,112.305 409.153,81.022 403.934,81.974C401.563,82.407 387.53,107.306 387.614,109.894C387.868,117.746 385.966,125.459 385.966,125.459C385.966,125.459 345.201,195.112 333.809,214.953C327.999,225.071 314.657,232.461 302.99,232.461C287.383,232.461 255.962,232.491 241.456,234.605C232.354,235.932 223.718,240.216 215.955,245.15C208.18,250.091 199.819,256.181 194.809,264.25C168.789,306.158 57.855,500 57.855,500L42.651,500C42.651,500 156.534,299.289 183.155,256.491C189.12,246.9 198.825,239.429 208.005,233.455C217.177,227.486 227.424,222.35 238.234,220.645C253.925,218.17 287.409,219.229 302.155,218.606C310.694,218.246 319.15,211.907 323.66,204.648C333.561,188.715 364.316,135.568 372.453,119.415C373.984,116.375 371.366,110.297 372.482,107.732C376.062,99.503 390.145,75.922 395.856,69.16C398.238,66.339 403.272,65.92 406.75,67.158C420.6,72.089 465.347,97.357 475.45,107.658C478.372,110.637 479.236,115.692 477.772,119.405C474.675,127.261 461.916,148.036 456.87,154.793C454.735,157.651 447.754,157.784 445.812,160.776C435.736,176.298 406.152,229.733 396.41,247.927C392.365,255.481 394.075,269.343 397.292,275.329C403.785,287.413 419.308,311.406 424.729,325.208C428.791,335.548 429.941,347.324 429.821,358.142C429.702,368.96 428.767,380.384 424.013,390.118C411.472,415.797 361.475,500 361.475,500ZM417.536,134.618C427.971,142.002 436.469,150.197 436.469,150.197L438.797,152.442L437.2,155.254C437.2,155.254 397.814,224.608 387.645,243.519C382.74,252.64 381.872,264.774 385.408,274.508C390.61,288.833 408.282,313.794 413.82,327.3C417.659,336.663 419.037,347.439 418.977,357.218C418.918,367.076 417.758,377.433 413.357,386.254C403.082,406.847 364.528,474.838 352.587,495.833L359.102,495.833C366.791,482.85 408.917,411.533 420.269,388.29C424.756,379.103 425.542,368.305 425.655,358.096C425.769,347.795 424.718,336.576 420.851,326.732C415.476,313.049 400.058,289.281 393.621,277.302C391.449,273.258 389.799,266.041 389.88,259.063C389.937,254.216 390.838,249.505 392.736,245.961C402.513,227.703 432.205,174.084 442.317,158.507C443.516,156.661 445.794,155.271 448.504,154.285C449.763,153.827 451.118,153.427 452.308,152.933C452.789,152.733 453.284,152.631 453.531,152.3C458.442,145.724 470.882,125.522 473.895,117.877C474.805,115.571 474.29,112.426 472.476,110.576C462.609,100.516 418.878,75.898 405.353,71.084C404.215,70.679 402.821,70.558 401.518,70.756C400.561,70.902 399.612,71.17 399.039,71.848C393.521,78.382 379.982,101.059 376.379,109.22C376.378,109.4 376.379,110.007 376.418,110.391C376.541,111.594 376.785,112.933 376.941,114.235C377.259,116.906 377.099,119.454 376.174,121.289C368.006,137.503 337.138,190.854 327.199,206.847C322.004,215.207 312.165,222.354 302.331,222.769C287.694,223.387 254.458,222.305 238.883,224.761C228.645,226.376 218.964,231.294 210.278,236.947C201.587,242.603 192.34,249.611 186.693,258.691C162.882,296.972 69.22,461.661 49.809,495.833L55.439,495.833C67.497,474.776 166.827,301.419 191.269,262.052C196.605,253.458 205.44,246.896 213.72,241.634C221.973,236.388 231.178,231.893 240.855,230.482C255.502,228.347 287.23,228.294 302.99,228.294C313.282,228.294 325.07,221.804 330.195,212.878C340.999,194.063 378.208,130.468 382.051,123.895C382.455,122.067 383.646,116.093 383.45,110.029C383.428,109.353 383.757,107.671 384.742,105.444C387.238,99.802 393.964,87.884 397.936,82.363C399.272,80.505 400.458,79.258 401.184,78.743L402.134,78.199L403.186,77.875C404.089,77.71 405.859,77.826 408.222,78.676C413.82,80.688 425.545,86.991 436.95,93.786C448.344,100.575 459.416,107.852 463.792,111.704C465.684,113.369 466.613,114.863 466.88,115.69L467.103,116.939L467.03,118.121C466.916,118.833 466.584,119.937 466.008,121.303C463.587,127.043 456.31,139.393 452.188,144.294C450.721,146.038 449.349,147.031 448.508,147.375L447.209,147.715L445.99,147.699L444.837,147.369L443.778,146.719C434.172,138.812 424.028,131.998 417.82,128.028C417.716,130.405 417.608,132.887 417.536,134.618Z" style="fill:#00052b;"/><path id="letter" d="M310.521,500C310.521,500 334.327,460.177 339.676,451.212C356.365,423.241 377.072,390.346 388.39,373.371C392.309,367.495 386.883,357.274 383.487,351.08C379.376,343.583 370.463,333.978 362.402,326.981C353.341,319.116 340.994,310.32 329.122,303.888C316.511,297.056 298.123,289.062 286.739,285.989C278.395,283.737 262.584,282.178 260.817,285.45C253.135,299.677 242.649,316.933 242.649,316.933C242.649,316.933 232.841,307.761 228.8,302.44C224.232,296.428 214.641,282.461 214.641,282.461C214.641,282.461 174.15,355.405 152.381,393.022C130.468,430.888 88.573,500 88.573,500L101.878,500C101.878,500 141.926,433.657 162.191,398.514C180.616,366.559 215.798,302.756 215.798,302.756C215.798,302.756 226.386,317.405 236.304,326.387C246.646,335.752 264.195,349.796 276.865,357.236C290.557,365.276 308.453,374.58 323.423,379.478C329.862,381.585 339.562,384.395 348.186,385.6C358.166,386.996 366.683,386.623 366.683,386.623C366.683,386.623 339.934,429.805 330.201,446.549C327.137,451.82 298.869,500 298.869,500L310.521,500ZM324.491,366.186L340.832,345.367C340.832,345.367 318.846,336.991 308.328,331.594C303.964,329.355 297.3,326.139 291.857,322.464C285.885,318.431 281.21,313.928 278.52,311.511C273.485,306.988 266.914,298.759 269.471,296.008C272.81,292.415 280.682,294.072 290.143,297.586C299.327,300.997 315.427,308.638 324.424,313.915C333.977,319.519 346.625,327.503 354.986,334.938C363.035,342.096 378.779,359.742 377.177,368.472C376.633,371.442 371.823,373.884 366.116,374.535C360.916,375.128 351.676,374.24 344.738,372.848C337.801,371.457 324.491,366.186 324.491,366.186ZM325.206,349.14L314.316,363.19C314.316,363.19 304.817,360.055 293.014,354.387C280.925,348.582 274.195,343.28 265.023,336.602C260.793,333.522 250.305,324.197 250.305,324.197L260.951,305.502C260.951,305.502 267.375,315.538 276.541,322.843C284.512,329.195 292.312,333.918 301.775,338.528C316.153,345.532 325.206,349.14 325.206,349.14Z" style="fill:#00052b;"/><path d="M310.521,500L298.869,500C298.869,500 327.137,451.82 330.201,446.549C339.934,429.805 366.683,386.623 366.683,386.623C366.683,386.623 358.166,386.996 348.186,385.6C339.562,384.395 329.862,381.585 323.423,379.478C308.453,374.58 290.557,365.276 276.865,357.236C264.195,349.796 246.646,335.752 236.304,326.387C226.386,317.405 215.798,302.756 215.798,302.756C215.798,302.756 180.616,366.559 162.191,398.514C141.926,433.657 101.878,500 101.878,500L88.573,500C88.573,500 130.468,430.888 152.381,393.022C174.15,355.405 214.641,282.461 214.641,282.461C214.641,282.461 224.232,296.428 228.8,302.44C232.841,307.761 242.649,316.933 242.649,316.933C242.649,316.933 253.135,299.677 260.817,285.45C262.584,282.178 278.395,283.737 286.739,285.989C298.123,289.062 316.511,297.056 329.122,303.888C340.994,310.32 353.341,319.116 362.402,326.981C370.463,333.978 379.376,343.583 383.487,351.08C386.883,357.274 392.309,367.495 388.39,373.371C377.072,390.346 356.365,423.241 339.676,451.212C334.327,460.177 310.521,500 310.521,500ZM264.059,288.213C256.376,302.365 246.209,319.097 246.209,319.097L243.547,323.478L239.803,319.976C239.803,319.976 229.666,310.469 225.482,304.961C222.754,301.371 218.249,294.967 215.028,290.341C204.98,308.404 174.046,363.904 155.987,395.109C138.07,426.07 106.803,477.907 95.965,495.833C95.965,495.833 99.525,495.833 99.526,495.833C106.365,484.488 140.422,427.925 158.581,396.432C176.993,364.5 212.149,300.744 212.149,300.744L215.324,294.987L219.175,300.315C219.175,300.315 229.459,314.566 239.101,323.298C249.27,332.507 266.517,346.327 278.975,353.643C292.43,361.544 310.008,370.705 324.718,375.518C330.972,377.564 340.388,380.303 348.763,381.474C358.333,382.812 366.501,382.46 366.501,382.46L370.225,388.817C370.225,388.817 343.52,431.927 333.804,448.643C331.428,452.73 313.905,482.604 306.144,495.833L308.157,495.833C313.074,487.609 331.476,456.823 336.098,449.078C352.825,421.042 373.579,388.074 384.924,371.06C385.905,369.588 385.698,367.659 385.263,365.653C384.305,361.231 381.708,356.501 379.834,353.084C375.911,345.93 367.362,336.804 359.671,330.128C350.813,322.439 338.743,313.839 327.137,307.552C314.792,300.863 296.798,293.02 285.653,290.012C280.95,288.742 273.721,287.705 268.332,287.744C266.794,287.755 264.826,288.077 264.059,288.213ZM321.214,363.613C321.214,363.613 334.085,347.213 334.085,347.213C326.833,344.357 313.827,339.099 306.426,335.301C301.946,333.003 295.112,329.689 289.526,325.917C283.355,321.75 278.515,317.108 275.735,314.611C271.745,311.026 267,305.312 265.446,301.182C264.811,299.494 264.627,297.948 264.795,296.674L265.299,294.869L266.418,293.172C268.464,290.971 271.528,289.794 275.506,289.833C279.772,289.875 285.38,291.372 291.594,293.68C300.954,297.156 317.363,304.943 326.532,310.321C336.295,316.048 349.21,324.226 357.754,331.824C363.658,337.074 373.486,347.731 378.291,356.777C380.789,361.479 381.886,365.896 381.276,369.224C380.887,371.343 379.488,373.464 377.05,375.137C374.542,376.858 370.775,378.197 366.588,378.675C361.075,379.304 351.274,378.409 343.919,376.933C336.739,375.493 322.957,370.06 322.957,370.06L317.767,368.004L321.214,363.613ZM324.491,366.186C324.491,366.186 337.801,371.457 344.738,372.848C351.676,374.24 360.916,375.128 366.116,374.535C371.823,373.884 376.633,371.442 377.177,368.472C378.779,359.742 363.035,342.096 354.986,334.938C346.625,327.503 333.977,319.519 324.424,313.915C315.427,308.638 299.327,300.997 290.143,297.586C280.682,294.072 272.81,292.415 269.471,296.008C266.914,298.759 273.485,306.988 278.52,311.511C281.21,313.928 285.885,318.431 291.857,322.464C297.3,326.139 303.964,329.355 308.328,331.594C318.846,336.991 340.832,345.367 340.832,345.367L324.491,366.186ZM315.806,368.069L313.01,367.147C313.01,367.147 303.288,363.943 291.21,358.143C278.846,352.206 271.952,346.8 262.571,339.971C258.251,336.826 247.536,327.311 247.536,327.311L245.014,325.068L260.743,297.448L264.46,303.256C264.46,303.256 270.508,312.706 279.138,319.584C286.864,325.741 294.427,330.313 303.6,334.782C317.805,341.702 326.748,345.269 326.748,345.269L331.889,347.318L315.806,368.069ZM325.206,349.14C325.206,349.14 316.153,345.532 301.775,338.528C292.312,333.918 284.512,329.195 276.541,322.843C267.375,315.538 260.951,305.502 260.951,305.502L250.305,324.197C250.305,324.197 260.793,333.522 265.023,336.602C274.195,343.28 280.925,348.582 293.014,354.387C304.817,360.055 314.316,363.19 314.316,363.19L325.206,349.14Z" style="fill:#00052b;"/><path id="cork" d="M412.184,58.656L424.758,64.436C424.758,64.436 433.086,48.263 433.132,48.278C447.634,53.026 464.339,60.602 475.243,71.702C475.309,71.769 465.483,86.596 465.483,86.596L476.922,95.851C476.922,95.851 486.132,83.874 488.896,78.366C492.059,72.066 490.877,64.696 486.488,60.68C476.95,51.953 448,37.41 436.229,33.82C430.315,32.017 424.333,35.411 420.548,40.89C417.182,45.763 412.184,58.656 412.184,58.656Z" style="fill:#00052b;"/><path d="M412.184,58.656C412.184,58.656 417.182,45.763 420.548,40.89C424.333,35.411 430.315,32.017 436.229,33.82C448,37.41 476.95,51.953 486.488,60.68C490.877,64.696 492.059,72.066 488.896,78.366C486.132,83.874 476.922,95.851 476.922,95.851L465.483,86.596C465.483,86.596 475.309,71.769 475.243,71.702C464.339,60.602 447.634,53.026 433.132,48.278C433.086,48.263 424.758,64.436 424.758,64.436L412.184,58.656ZM417.525,56.525C417.525,56.525 422.879,58.986 422.879,58.986C424.987,54.898 428.283,48.514 429.205,46.775C429.474,46.268 429.657,45.976 429.694,45.922L430.495,45.051L432.021,44.262L433.298,44.114L434.428,44.318C449.524,49.26 466.866,57.228 478.215,68.782L478.89,69.688L479.321,70.848L479.387,72.142L479.16,73.126L478.511,74.356C477.471,76.008 473.531,81.98 471.047,85.738L476.193,89.901C479.033,86.079 483.433,79.962 485.172,76.497C487.446,71.968 486.831,66.641 483.675,63.754C474.445,55.308 446.405,41.279 435.014,37.806C430.781,36.515 426.685,39.337 423.976,43.259C421.894,46.274 419.171,52.528 417.525,56.525Z" style="fill:#00052b;"/></g></svg>