<?xml version="1.0" encoding="UTF-8" standalone="no"?><!DOCTYPE svg PUBLIC "-//W3C//DTD SVG 1.1//EN" "http://www.w3.org/Graphics/SVG/1.1/DTD/svg11.dtd"><svg width="32px" height="32px" version="1.1" xmlns="http://www.w3.org/2000/svg" xmlns:xlink="http://www.w3.org/1999/xlink" xml:space="preserve" xmlns:serif="http://www.serif.com/" style="fill-rule:evenodd;clip-rule:evenodd;stroke-linejoin:round;stroke-miterlimit:2;"><rect id="Bluesky" x="0" y="0" width="32" height="32" style="fill:none;"/><clipPath id="_clip1"><rect x="0" y="0" width="32" height="32"/></clipPath><g clip-path="url(#_clip1)"><path id="container" d="M2.33,-0c-1.287,-0 -2.33,1.043 -2.33,2.33l0,27.34c0,1.287 1.043,2.33 2.33,2.33l27.34,-0c1.287,-0 2.33,-1.043 2.33,-2.33l0,-27.34c0,-1.287 -1.043,-2.33 -2.33,-2.33l-27.34,-0Zm13.67,15.358c-1.087,-2.247 -4.046,-6.436 -6.798,-8.502c-1.985,-1.49 -5.202,-2.643 -5.202,1.026c0,0.733 0.42,6.157 0.667,7.038c0.856,3.061 3.978,3.842 6.755,3.37c-4.854,0.826 -6.089,3.562 -3.422,6.298c5.065,5.197 7.279,-1.304 7.847,-2.969c0.104,-0.306 0.152,-0.448 0.153,-0.327c0.001,-0.121 0.049,0.021 0.153,0.327c0.568,1.665 2.782,8.166 7.847,2.969c2.667,-2.736 1.432,-5.472 -3.422,-6.298c2.777,0.472 5.899,-0.309 6.755,-3.37c0.247,-0.881 0.667,-6.305 0.667,-7.038c-0,-3.669 -3.217,-2.516 -5.202,-1.026c-2.752,2.066 -5.711,6.255 -6.798,8.502Z" style="fill:#0047ab;"/><path id="icon" d="M16,15.358c1.087,-2.247 4.046,-6.436 6.798,-8.501c1.985,-1.491 5.202,-2.644 5.202,1.026c-0,0.733 -0.42,6.156 -0.667,7.037c-0.856,3.061 -3.978,3.842 -6.755,3.37c4.854,0.826 6.089,3.562 3.422,6.299c-5.065,5.196 -7.279,-1.304 -7.847,-2.97c-0.104,-0.305 -0.152,-0.448 -0.153,-0.327c-0.001,-0.121 -0.049,0.022 -0.153,0.327c-0.568,1.666 -2.782,8.166 -7.847,2.97c-2.667,-2.737 -1.432,-5.473 3.422,-6.299c-2.777,0.472 -5.899,-0.309 -6.755,-3.37c-0.247,-0.881 -0.667,-6.304 -0.667,-7.037c0,-3.67 3.217,-2.517 5.202,-1.026c2.752,2.065 5.711,6.254 6.798,8.501Z" style="fill:none;"/></g></svg>