<?xml version="1.0" encoding="UTF-8" standalone="no"?><!DOCTYPE svg PUBLIC "-//W3C//DTD SVG 1.1//EN" "http://www.w3.org/Graphics/SVG/1.1/DTD/svg11.dtd"><svg width="32px" height="32px" version="1.1" xmlns="http://www.w3.org/2000/svg" xmlns:xlink="http://www.w3.org/1999/xlink" xml:space="preserve" xmlns:serif="http://www.serif.com/" style="fill-rule:evenodd;clip-rule:evenodd;stroke-linejoin:round;stroke-miterlimit:2;"><rect id="Discord" x="0" y="0" width="32" height="32" style="fill:none;"/><clipPath id="_clip1"><rect x="0" y="0" width="32" height="32"/></clipPath><g clip-path="url(#_clip1)"><path id="container" d="M32,2.4l0,27.2c0,1.325 -1.075,2.4 -2.4,2.4l-27.2,-0c-1.325,-0 -2.4,-1.075 -2.4,-2.4l-0,-27.2c-0,-1.325 1.075,-2.4 2.4,-2.4l27.2,0c1.325,0 2.4,1.075 2.4,2.4Zm-7.683,5.97c-1.529,-0.702 -3.17,-1.22 -4.885,-1.516c-0.031,-0.005 -0.062,0.009 -0.078,0.037c-0.211,0.376 -0.445,0.865 -0.608,1.25c-1.845,-0.276 -3.681,-0.276 -5.487,-0c-0.164,-0.393 -0.406,-0.874 -0.618,-1.25c-0.017,-0.027 -0.048,-0.042 -0.079,-0.037c-1.714,0.295 -3.354,0.812 -4.885,1.516c-0.013,0.005 -0.025,0.015 -0.032,0.027c-3.112,4.649 -3.964,9.183 -3.546,13.661c0.002,0.022 0.014,0.043 0.031,0.056c2.053,1.508 4.042,2.423 5.993,3.03c0.031,0.009 0.065,-0.002 0.084,-0.028c0.462,-0.631 0.874,-1.295 1.227,-1.994c0.02,-0.041 0.001,-0.09 -0.042,-0.106c-0.653,-0.248 -1.274,-0.549 -1.872,-0.893c-0.047,-0.027 -0.051,-0.095 -0.008,-0.127c0.126,-0.095 0.252,-0.193 0.372,-0.292c0.022,-0.018 0.052,-0.021 0.078,-0.01c3.928,1.794 8.18,1.794 12.062,0c0.025,-0.012 0.055,-0.009 0.078,0.009c0.12,0.1 0.246,0.198 0.373,0.293c0.043,0.032 0.041,0.1 -0.007,0.127c-0.598,0.35 -1.219,0.645 -1.873,0.892c-0.042,0.016 -0.061,0.065 -0.041,0.107c0.361,0.698 0.772,1.362 1.225,1.993c0.019,0.026 0.053,0.038 0.084,0.028c1.961,-0.606 3.95,-1.522 6.003,-3.029c0.018,-0.013 0.029,-0.034 0.031,-0.055c0.5,-5.177 -0.839,-9.674 -3.548,-13.661c-0.007,-0.013 -0.018,-0.023 -0.032,-0.028Zm-12.297,10.961c-1.183,0 -2.157,-1.085 -2.157,-2.419c0,-1.334 0.956,-2.419 2.157,-2.419c1.211,-0 2.176,1.095 2.157,2.419c0,1.333 -0.955,2.419 -2.157,2.419Zm7.975,0c-1.182,0 -2.157,-1.085 -2.157,-2.419c0,-1.334 0.956,-2.419 2.157,-2.419c1.211,-0 2.176,1.095 2.157,2.419c-0,1.333 -0.946,2.419 -2.157,2.419Z" style="fill:#0047ab;"/><path id="icon" d="M24.317,8.37c0.014,0.005 0.025,0.015 0.032,0.028c2.709,3.987 4.048,8.484 3.548,13.661c-0.002,0.021 -0.013,0.042 -0.031,0.055c-2.053,1.507 -4.042,2.423 -6.003,3.029c-0.031,0.01 -0.065,-0.002 -0.084,-0.028c-0.453,-0.631 -0.864,-1.295 -1.225,-1.993c-0.02,-0.042 -0.001,-0.091 0.041,-0.107c0.654,-0.247 1.275,-0.542 1.873,-0.892c0.048,-0.027 0.05,-0.095 0.007,-0.127c-0.127,-0.095 -0.253,-0.193 -0.373,-0.293c-0.023,-0.018 -0.053,-0.021 -0.078,-0.009c-3.882,1.794 -8.134,1.794 -12.062,0c-0.026,-0.011 -0.056,-0.008 -0.078,0.01c-0.12,0.099 -0.246,0.197 -0.372,0.292c-0.043,0.032 -0.039,0.1 0.008,0.127c0.598,0.344 1.219,0.645 1.872,0.893c0.043,0.016 0.062,0.065 0.042,0.106c-0.353,0.699 -0.765,1.363 -1.227,1.994c-0.019,0.026 -0.053,0.037 -0.084,0.028c-1.951,-0.607 -3.94,-1.522 -5.993,-3.03c-0.017,-0.013 -0.029,-0.034 -0.031,-0.056c-0.418,-4.478 0.434,-9.012 3.546,-13.661c0.007,-0.012 0.019,-0.022 0.032,-0.027c1.531,-0.704 3.171,-1.221 4.885,-1.516c0.031,-0.005 0.062,0.01 0.079,0.037c0.212,0.376 0.454,0.857 0.618,1.25c1.806,-0.276 3.642,-0.276 5.487,-0c0.163,-0.385 0.397,-0.874 0.608,-1.25c0.016,-0.028 0.047,-0.042 0.078,-0.037c1.715,0.296 3.356,0.814 4.885,1.516Zm-4.322,10.961c1.211,0 2.157,-1.086 2.157,-2.419c0.019,-1.324 -0.946,-2.419 -2.157,-2.419c-1.201,-0 -2.157,1.085 -2.157,2.419c0,1.334 0.975,2.419 2.157,2.419Zm-7.975,0c1.202,0 2.157,-1.086 2.157,-2.419c0.019,-1.324 -0.946,-2.419 -2.157,-2.419c-1.201,-0 -2.157,1.085 -2.157,2.419c0,1.334 0.974,2.419 2.157,2.419Z" style="fill:none;"/></g></svg>