<?xml version="1.0" encoding="UTF-8" standalone="no"?><!DOCTYPE svg PUBLIC "-//W3C//DTD SVG 1.1//EN" "http://www.w3.org/Graphics/SVG/1.1/DTD/svg11.dtd"><svg width="32px" height="32px" version="1.1" xmlns="http://www.w3.org/2000/svg" xmlns:xlink="http://www.w3.org/1999/xlink" xml:space="preserve" xmlns:serif="http://www.serif.com/" style="fill-rule:evenodd;clip-rule:evenodd;stroke-linejoin:round;stroke-miterlimit:2;"><rect id="GitHub" x="0" y="0" width="32" height="32" style="fill:none;"/><clipPath id="_clip1"><rect x="0" y="0" width="32" height="32"/></clipPath><g clip-path="url(#_clip1)"><path id="container" d="M2.33,0c-1.287,0 -2.33,1.043 -2.33,2.33l-0,27.34c-0,1.287 1.043,2.33 2.33,2.33l27.34,0c1.287,0 2.33,-1.043 2.33,-2.33l0,-27.34c0,-1.287 -1.043,-2.33 -2.33,-2.33l-27.34,-0Zm2.17,16c0,-6.351 5.15,-11.5 11.5,-11.5c6.351,0 11.5,5.149 11.5,11.5c-0,5.079 -3.291,9.387 -7.858,10.911c-0.584,0.111 -0.769,-0.229 -0.769,-0.537l-0,-3.183c-0,-1.073 -0.375,-1.763 -0.787,-2.118c2.562,-0.284 5.251,-1.256 5.251,-5.675c-0,-1.256 -0.447,-2.281 -1.182,-3.085c0.118,-0.291 0.512,-1.46 -0.115,-3.044c0,0 -0.964,-0.308 -3.16,1.18c-0.919,-0.255 -1.902,-0.383 -2.879,-0.387c-0.978,0.004 -1.962,0.132 -2.88,0.387c-2.196,-1.489 -3.161,-1.18 -3.161,-1.18c-0.627,1.584 -0.232,2.753 -0.113,3.044c-0.736,0.804 -1.184,1.829 -1.184,3.085c0,4.407 2.685,5.393 5.238,5.684c-0.328,0.287 -0.626,0.794 -0.731,1.538c-0.655,0.293 -2.32,0.8 -3.346,-0.956c0,0 -0.608,-1.104 -1.762,-1.185c0,-0 -1.122,-0.014 -0.078,0.699c-0,0 0.753,0.354 1.276,1.682c0,0 0.663,2.21 3.861,1.515c0.005,0.723 0.002,1.335 0.001,1.71c-0,0.122 -0.001,0.219 -0.001,0.286c0,0.305 -0.181,0.646 -0.756,0.541c-4.571,-1.521 -7.865,-5.832 -7.865,-10.912Z" style="fill:#0047ab;"/><path id="icon" d="M4.5,15.954c0,-6.351 5.15,-11.5 11.5,-11.5c6.351,-0 11.5,5.149 11.5,11.5c-0,5.079 -3.291,9.387 -7.858,10.91c-0.584,0.112 -0.769,-0.228 -0.769,-0.536l-0,-3.183c-0,-1.073 -0.375,-1.763 -0.787,-2.119c2.562,-0.284 5.251,-1.255 5.251,-5.674c-0,-1.256 -0.447,-2.282 -1.182,-3.085c0.118,-0.291 0.512,-1.46 -0.115,-3.044c0,0 -0.964,-0.308 -3.16,1.18c-0.919,-0.255 -1.902,-0.383 -2.879,-0.387c-0.978,0.004 -1.962,0.132 -2.88,0.387c-2.196,-1.489 -3.161,-1.18 -3.161,-1.18c-0.627,1.584 -0.232,2.753 -0.113,3.044c-0.736,0.803 -1.184,1.829 -1.184,3.085c0,4.407 2.685,5.393 5.238,5.684c-0.328,0.287 -0.626,0.794 -0.731,1.537c-0.655,0.294 -2.32,0.801 -3.346,-0.955c0,0 -0.608,-1.104 -1.762,-1.185c0,-0 -1.122,-0.014 -0.078,0.699c-0,0 0.753,0.354 1.276,1.682c0,0 0.663,2.21 3.861,1.515c0.005,0.723 0.002,1.335 0.001,1.71c-0,0.122 -0.001,0.219 -0.001,0.286c0,0.305 -0.181,0.646 -0.756,0.541c-4.571,-1.521 -7.865,-5.832 -7.865,-10.912Z" style="fill:none;"/></g></svg>