<?xml version="1.0" encoding="UTF-8" standalone="no"?><!DOCTYPE svg PUBLIC "-//W3C//DTD SVG 1.1//EN" "http://www.w3.org/Graphics/SVG/1.1/DTD/svg11.dtd"><svg width="32px" height="32px" version="1.1" xmlns="http://www.w3.org/2000/svg" xmlns:xlink="http://www.w3.org/1999/xlink" xml:space="preserve" xmlns:serif="http://www.serif.com/" style="fill-rule:evenodd;clip-rule:evenodd;stroke-linejoin:round;stroke-miterlimit:2;"><rect id="Itch" x="0" y="0" width="32" height="32" style="fill:none;"/><clipPath id="_clip1"><rect x="0" y="0" width="32" height="32"/></clipPath><g clip-path="url(#_clip1)"><path id="container" d="M2.33,-0c-1.287,-0 -2.33,1.043 -2.33,2.33l0,27.34c0,1.287 1.043,2.33 2.33,2.33l27.34,0c1.287,0 2.33,-1.043 2.33,-2.33l0,-27.34c0,-1.287 -1.043,-2.33 -2.33,-2.33l-27.34,-0Zm5.083,5.131c0.9,-0.08 5.336,-0.131 8.588,-0.131c3.252,-0 5.444,0.02 8.586,0.131c1.01,0.606 3.009,2.9 3.029,3.496l0,1c0,1.263 -1.181,2.373 -2.252,2.373c-1.283,-0 -2.353,-1.07 -2.353,-2.332c-0,1.263 -1.042,2.332 -2.325,2.332c-1.282,-0 -2.292,-1.07 -2.292,-2.332c-0,1.263 -1.09,2.332 -2.383,2.332l-0.022,-0c-1.293,-0 -2.383,-1.07 -2.383,-2.332c0,1.263 -1,2.332 -2.293,2.332c-1.282,-0 -2.322,-1.07 -2.322,-2.332c0,1.262 -1.07,2.332 -2.353,2.332c-1.071,-0 -2.254,-1.11 -2.254,-2.373l-0,-1c0.02,-0.596 2.019,-2.89 3.029,-3.496Zm1.408,6.623c1.032,1.82 3.678,1.798 4.731,-0.012c0.501,0.865 1.446,1.406 2.449,1.367c1.367,0 2.124,-0.777 2.449,-1.367c1.052,1.81 3.697,1.832 4.74,0.012c0.62,1.092 2.047,1.513 2.657,1.306c0.168,1.761 0.502,11.759 -0.993,13.284c-3.689,0.865 -13.91,0.885 -17.707,-0c-1.293,-1.635 -1.17,-11.385 -0.992,-13.284c0.61,0.207 2.036,-0.214 2.666,-1.306Zm5.01,3.226c-0.88,-0.98 -1.61,-0.98 -2.41,-0.98l-0,0.01c-2.247,-0 -3.008,2.874 -3.781,5.797c-0.115,0.433 -0.23,0.867 -0.35,1.292c-0.84,3.05 0.282,3.131 1.672,3.131c2.07,-0.08 3.219,-1.58 3.219,-3.09c2.63,0.44 5.71,0.32 7.64,0c0,1.51 1.149,3.01 3.219,3.09c1.39,0 2.512,-0.081 1.672,-3.131c-0.122,-0.431 -0.239,-0.872 -0.356,-1.311c-0.771,-2.905 -1.534,-5.778 -3.775,-5.778c-0.8,-0 -1.52,0 -2.41,0.97c-1.45,-0.15 -2.89,-0.15 -4.34,0Zm0.17,4.004c0.306,-0.545 2,-2.107 2,-2.107c-0,-0 1.694,1.561 2,2.107l-1.107,-0.041l-0,0.967c-0,0.041 -0.446,0.025 -0.893,0.008c-0.052,-0 -0.468,0.024 -0.714,0.019c-0.105,-0.002 -0.179,-0.01 -0.179,-0.027l0,-0.967l-1.107,0.041Z" style="fill:#0047ab;"/><path id="icon" d="M8.821,11.754c1.032,1.82 3.678,1.798 4.731,-0.012c0.501,0.865 1.446,1.406 2.449,1.367c1.367,0 2.124,-0.777 2.449,-1.367c1.052,1.81 3.698,1.832 4.74,0.012c0.62,1.092 2.047,1.513 2.657,1.306c0.168,1.761 0.503,11.759 -0.992,13.284c-3.689,0.865 -13.911,0.885 -17.708,-0c-1.293,-1.635 -1.17,-11.385 -0.992,-13.284c0.61,0.207 2.036,-0.214 2.666,-1.306Zm5.01,3.226c-0.88,-0.98 -1.61,-0.98 -2.41,-0.98l-0,0.01c-2.247,-0 -3.008,2.874 -3.781,5.797c-0.115,0.433 -0.23,0.867 -0.35,1.292c-0.84,3.05 0.282,3.131 1.672,3.131c2.07,-0.08 3.219,-1.58 3.219,-3.09c2.63,0.44 5.71,0.32 7.64,0c0,1.51 1.149,3.01 3.219,3.09c1.39,0 2.512,-0.081 1.672,-3.131c-0.122,-0.431 -0.239,-0.872 -0.356,-1.311c-0.771,-2.905 -1.534,-5.778 -3.775,-5.778c-0.8,-0 -1.52,0 -2.41,0.97c-1.45,-0.15 -2.89,-0.15 -4.34,0Zm0.17,4.004c0.306,-0.545 2,-2.107 2,-2.107c0,-0 1.694,1.561 2,2.107l-1.107,-0.041l-0,0.967c-0,0.041 -0.446,0.025 -0.893,0.008c-0.052,-0 -0.468,0.024 -0.714,0.019c-0.105,-0.002 -0.179,-0.01 -0.179,-0.027l0,-0.967l-1.107,0.041Zm-6.588,-13.853c0.9,-0.08 5.336,-0.131 8.588,-0.131c3.252,-0 5.444,0.02 8.586,0.131c1.01,0.606 3.009,2.9 3.029,3.496l0,1c0,1.263 -1.181,2.373 -2.252,2.373c-1.283,-0 -2.353,-1.07 -2.353,-2.332c-0,1.263 -1.041,2.332 -2.324,2.332c-1.283,-0 -2.293,-1.07 -2.293,-2.332c-0,1.263 -1.09,2.332 -2.383,2.332l-0.022,-0c-1.293,-0 -2.383,-1.07 -2.383,-2.332c0,1.263 -1,2.332 -2.293,2.332c-1.282,-0 -2.322,-1.07 -2.322,-2.332c0,1.262 -1.07,2.332 -2.353,2.332c-1.071,-0 -2.254,-1.11 -2.254,-2.373l-0,-1c0.02,-0.596 2.019,-2.89 3.029,-3.496Z" style="fill:none;"/></g></svg>