<?xml version="1.0" encoding="UTF-8" standalone="no"?>
<!DOCTYPE svg PUBLIC "-//W3C//DTD SVG 1.1//EN" "http://www.w3.org/Graphics/SVG/1.1/DTD/svg11.dtd">
<svg width="32px" height="32px" version="1.1" xmlns="http://www.w3.org/2000/svg" xmlns:xlink="http://www.w3.org/1999/xlink" xml:space="preserve" xmlns:serif="http://www.serif.com/" style="fill-rule:evenodd;clip-rule:evenodd;stroke-linejoin:round;stroke-miterlimit:2;">
<rect id="Machinations" x="0" y="0" width="32" height="32" style="fill:none;"/>
<clipPath id="_clip1">
<rect x="0" y="0" width="32" height="32"/>
</clipPath>
  <g clip-path="url(#_clip1)">
    <path id="container" d="M32,2.4L32,29.6C32,30.925 30.925,32 29.6,32L2.4,32C1.075,32 0,30.925 0,29.6L0,2.4C0,1.075 1.075,0 2.4,0L29.6,0C30.925,0 32,1.075 32,2.4ZM21.049,10.614L10.875,10.614C10.586,10.614 10.436,10.92 10.561,11.142C11.435,12.707 14.807,18.715 15.685,20.282C15.811,20.506 16.16,20.507 16.285,20.283C17.165,18.709 20.517,12.72 21.397,11.149C21.526,10.917 21.388,10.614 21.049,10.614ZM9.078,11.398C8.222,12.996 4.994,19.028 4.049,20.791C3.893,21.082 4.145,21.384 4.324,21.384C5.402,21.384 9.129,21.386 10.276,21.386C10.589,21.386 10.699,21.265 10.707,21.01C10.748,19.654 11.806,18.061 12.74,17.48C12.768,17.462 13.122,17.298 12.866,16.845C12.303,15.866 10.318,12.415 9.733,11.402C9.582,11.131 9.203,11.163 9.078,11.398ZM22.922,11.398C22.796,11.163 22.418,11.131 22.263,11.402C21.683,12.415 19.697,15.866 19.134,16.845C18.878,17.298 19.232,17.462 19.26,17.48C20.194,18.061 21.252,19.654 21.293,21.01C21.301,21.265 21.411,21.386 21.724,21.386C22.871,21.386 26.598,21.384 27.676,21.384C27.855,21.384 28.107,21.082 27.951,20.791C27.006,19.028 23.778,12.996 22.922,11.398Z" style="fill:#0047ab;"/>
    <path id="icon" d="M9.078,11.398C9.203,11.163 9.582,11.131 9.733,11.402C10.318,12.415 12.303,15.866 12.866,16.845C13.122,17.298 12.768,17.462 12.74,17.48C11.806,18.061 10.748,19.654 10.707,21.01C10.699,21.265 10.589,21.386 10.276,21.386C9.129,21.386 5.402,21.384 4.324,21.384C4.145,21.384 3.893,21.082 4.049,20.791C4.994,19.028 8.222,12.996 9.078,11.398ZM21.049,10.614C21.388,10.614 21.526,10.917 21.397,11.149C20.517,12.72 17.165,18.709 16.285,20.283C16.16,20.507 15.811,20.506 15.685,20.282C14.807,18.715 11.435,12.707 10.561,11.142C10.436,10.92 10.586,10.614 10.875,10.614L21.049,10.614ZM22.922,11.398C23.778,12.996 27.006,19.028 27.951,20.791C28.107,21.082 27.855,21.384 27.676,21.384C26.598,21.384 22.871,21.386 21.724,21.386C21.411,21.386 21.301,21.265 21.293,21.01C21.252,19.654 20.194,18.061 19.26,17.48C19.232,17.462 18.878,17.298 19.134,16.845C19.697,15.866 21.683,12.415 22.263,11.402C22.418,11.131 22.796,11.163 22.922,11.398Z" style="fill:none;"/>
  </g>
</svg>