<?xml version="1.0" encoding="UTF-8" standalone="no"?><!DOCTYPE svg PUBLIC "-//W3C//DTD SVG 1.1//EN" "http://www.w3.org/Graphics/SVG/1.1/DTD/svg11.dtd"><svg width="32px" height="32px" version="1.1" xmlns="http://www.w3.org/2000/svg" xmlns:xlink="http://www.w3.org/1999/xlink" xml:space="preserve" xmlns:serif="http://www.serif.com/" style="fill-rule:evenodd;clip-rule:evenodd;stroke-linejoin:round;stroke-miterlimit:2;"><rect id="Protonmail" x="0" y="0" width="32" height="32" style="fill:none;"/><clipPath id="_clip1"><rect id="Protonmail1" serif:id="Protonmail" x="0" y="0" width="32" height="32"/></clipPath><g clip-path="url(#_clip1)"><path id="container" d="M2.33,0C1.043,0 0,1.043 0,2.33L0,29.67C0,30.957 1.043,32 2.33,32L29.67,32C30.957,32 32,30.957 32,29.67L32,2.33C32,1.043 30.957,0 29.67,0L2.33,0ZM6.2,12.123L6.2,8.423L13.9,15.023C14.078,15.17 14.18,15.24 14.4,15.323L12.9,16.523C12.5,16.823 12,16.823 11.6,16.523L6.3,12.123ZM6.2,15.023L6.2,23.023C6.2,23.623 6.7,24.123 7.3,24.223L20.4,24.223L20.4,13.223L14.3,18.323C13.1,19.323 11.3,19.323 10.1,18.323L6.2,15.023ZM24.7,24.123L22.5,24.123L22.5,11.223L25.8,8.423L25.8,23.023C25.8,23.623 25.3,24.123 24.7,24.123ZM6.7,6.123C5.6,5.123 4,5.923 4,7.323L4,23.023C4,24.823 5.5,26.323 7.3,26.323L24.7,26.323C26.5,26.323 28,24.823 28,23.023L28,7.323C28,5.923 26.4,5.123 25.3,6.123L16.7,13.423C16.3,13.723 15.7,13.723 15.3,13.423L6.7,6.123Z" style="fill:#0047ab;"/><path id="icon" d="M6.7,6.123L15.3,13.423C15.7,13.723 16.3,13.723 16.7,13.423L25.3,6.123C26.4,5.123 28,5.923 28,7.323L28,23.023C28,24.823 26.5,26.323 24.7,26.323L7.3,26.323C5.5,26.323 4,24.823 4,23.023L4,7.323C4,5.923 5.6,5.123 6.7,6.123ZM6.2,12.123L11.5,16.523C11.9,16.823 12.5,16.823 12.9,16.523L14.4,15.323C14.18,15.24 14.078,15.169 13.9,15.023L6.2,8.423L6.2,12.123ZM6.2,15.023L6.2,23.023C6.2,23.623 6.7,24.123 7.3,24.223L20.4,24.223L20.4,13.223L14.3,18.323C13.1,19.323 11.3,19.323 10.1,18.323L6.2,15.023ZM24.7,24.123C25.3,24.123 25.8,23.623 25.8,23.023L25.8,8.423L22.5,11.223L22.5,24.123L24.7,24.123Z" style="fill:none;"/></g></svg>