<?xml version="1.0" encoding="UTF-8" standalone="no"?><!DOCTYPE svg PUBLIC "-//W3C//DTD SVG 1.1//EN" "http://www.w3.org/Graphics/SVG/1.1/DTD/svg11.dtd"><svg width="32px" height="32px" version="1.1" xmlns="http://www.w3.org/2000/svg" xmlns:xlink="http://www.w3.org/1999/xlink" xml:space="preserve" xmlns:serif="http://www.serif.com/" style="fill-rule:evenodd;clip-rule:evenodd;stroke-linejoin:round;stroke-miterlimit:2;"><rect id="TheXPlace" x="0" y="0" width="32" height="32" style="fill:none;"/><clipPath id="_clip1"><rect x="0" y="0" width="32" height="32"/></clipPath><g clip-path="url(#_clip1)"><path id="container" d="M32,2.4l0,27.2c0,1.325 -1.075,2.4 -2.4,2.4l-27.2,0c-1.325,0 -2.4,-1.075 -2.4,-2.4l0,-27.2c0,-1.325 1.075,-2.4 2.4,-2.4l27.2,0c1.325,0 2.4,1.075 2.4,2.4Zm-24.144,1.597l-3.878,3.877l6.782,6.783l3.878,-0l-0,-3.878l-6.782,-6.782Zm20.122,3.877l-3.878,-3.877l-6.782,6.782l-0,3.878l3.878,-0l6.782,-6.783Zm-3.878,20.129l3.878,-3.877l-6.782,-6.783l-3.878,0l-0,3.878l6.782,6.782Zm-20.122,-3.877l3.878,3.877l6.782,-6.782l-0,-3.878l-3.878,0l-6.782,6.783Z" style="fill:#0047ab;"/><path id="icon" d="M28,7.874l-6.782,6.783l-3.878,-0l0,-3.878l6.782,-6.782l3.878,3.877Zm-3.878,20.129l-6.782,-6.782l0,-3.878l3.878,0l6.782,6.783l-3.878,3.877Zm-16.244,-24.006l6.782,6.782l-0,3.878l-3.878,-0l-6.782,-6.783l3.878,-3.877Zm-3.878,20.129l6.782,-6.783l3.878,0l-0,3.878l-6.782,6.782l-3.878,-3.877Z" style="fill:none;"/></g></svg>