<?xml version="1.0" encoding="UTF-8" standalone="no"?><!DOCTYPE svg PUBLIC "-//W3C//DTD SVG 1.1//EN" "http://www.w3.org/Graphics/SVG/1.1/DTD/svg11.dtd"><svg width="32px" height="32px" version="1.1" xmlns="http://www.w3.org/2000/svg" xmlns:xlink="http://www.w3.org/1999/xlink" xml:space="preserve" xmlns:serif="http://www.serif.com/" style="fill-rule:evenodd;clip-rule:evenodd;stroke-linejoin:round;stroke-miterlimit:2;"><rect id="Twitter" x="0" y="0" width="32" height="32" style="fill:none;"/><clipPath id="_clip1"><rect x="0" y="0" width="32" height="32"/></clipPath><g clip-path="url(#_clip1)"><path id="container" d="M0,2.33c0,-1.287 1.043,-2.33 2.33,-2.33l27.34,-0c1.287,-0 2.33,1.043 2.33,2.33l0,27.34c0,1.287 -1.043,2.33 -2.33,2.33l-27.34,0c-1.287,0 -2.33,-1.043 -2.33,-2.33l-0,-27.34Zm25.362,11.062c-0,6.102 -4.646,13.142 -13.142,13.142c-2.605,0 -5.038,-0.766 -7.059,-2.088c0.364,0.048 0.728,0.067 1.101,0.067c2.165,-0 4.157,-0.738 5.738,-1.973c-2.021,-0.039 -3.726,-1.37 -4.311,-3.209c0.288,0.057 0.575,0.086 0.872,0.086c0.421,0 0.833,-0.057 1.216,-0.163c-2.116,-0.431 -3.706,-2.289 -3.706,-4.53l-0,-0.058c0.622,0.345 1.331,0.556 2.088,0.575c-1.246,-0.824 -2.06,-2.241 -2.06,-3.841c0,-0.843 0.23,-1.638 0.623,-2.318c2.28,2.797 5.68,4.636 9.521,4.828c-0.086,-0.336 -0.125,-0.69 -0.125,-1.054c0,-2.548 2.069,-4.617 4.617,-4.617c1.332,-0 2.529,0.556 3.372,1.456c1.054,-0.211 2.04,-0.594 2.931,-1.121c-0.345,1.083 -1.073,1.983 -2.031,2.558c0.939,-0.115 1.83,-0.364 2.654,-0.728c-0.623,0.929 -1.409,1.743 -2.309,2.394c0.01,0.192 0.01,0.393 0.01,0.594Z" style="fill:#0047ab;"/><path id="icon" d="M25.351,13.406c0,6.101 -4.645,13.142 -13.142,13.142c-2.605,-0 -5.038,-0.767 -7.059,-2.089c0.364,0.048 0.728,0.067 1.102,0.067c2.164,0 4.157,-0.737 5.737,-1.973c-2.021,-0.038 -3.726,-1.369 -4.31,-3.209c0.287,0.058 0.574,0.087 0.871,0.087c0.422,-0 0.834,-0.058 1.217,-0.163c-2.117,-0.431 -3.707,-2.289 -3.707,-4.531l-0,-0.057c0.623,0.345 1.331,0.555 2.088,0.574c-1.245,-0.823 -2.059,-2.241 -2.059,-3.841c-0,-0.842 0.23,-1.638 0.622,-2.318c2.28,2.797 5.68,4.636 9.521,4.828c-0.086,-0.335 -0.124,-0.69 -0.124,-1.054c-0,-2.547 2.069,-4.617 4.617,-4.617c1.331,0 2.528,0.556 3.371,1.456c1.054,-0.21 2.041,-0.593 2.931,-1.12c-0.344,1.082 -1.072,1.983 -2.03,2.557c0.938,-0.115 1.829,-0.364 2.653,-0.728c-0.623,0.929 -1.408,1.744 -2.308,2.395c0.009,0.191 0.009,0.393 0.009,0.594Z" style="fill:none;"/></g></svg>