<?xml version="1.0" encoding="UTF-8" standalone="no"?><!DOCTYPE svg PUBLIC "-//W3C//DTD SVG 1.1//EN" "http://www.w3.org/Graphics/SVG/1.1/DTD/svg11.dtd"><svg width="32px" height="32px" version="1.1" xmlns="http://www.w3.org/2000/svg" xmlns:xlink="http://www.w3.org/1999/xlink" xml:space="preserve" xmlns:serif="http://www.serif.com/" style="fill-rule:evenodd;clip-rule:evenodd;stroke-linejoin:round;stroke-miterlimit:2;"><rect id="X" x="0" y="0" width="32" height="32" style="fill:none;"/><path id="container" d="M32,2.4l-0,27.2c-0,1.325 -1.075,2.4 -2.4,2.4l-27.2,-0c-1.325,-0 -2.4,-1.075 -2.4,-2.4l0,-27.2c0,-1.325 1.075,-2.4 2.4,-2.4l27.2,0c1.325,0 2.4,1.075 2.4,2.4Zm-18.76,15.099l-9.045,10.501l2.471,0l7.668,-8.903l6.094,8.903l7.572,0l-9.433,-13.781l8.769,-10.219l-2.47,0l-7.396,8.617l-5.898,-8.617l-7.572,0l9.24,13.499Zm-2.719,-11.499l13.69,20l-2.732,0l-13.69,-20l2.732,0Z" style="fill:#0047ab;"/><path id="icon" d="M13.24,17.499l-9.24,-13.499l7.572,0l5.898,8.617l7.396,-8.617l2.47,0l-8.769,10.219l9.433,13.781l-7.572,0l-6.094,-8.903l-7.668,8.903l-2.471,0l9.045,-10.501Zm-2.719,-11.499l-2.732,-0l13.69,20l2.732,0l-13.69,-20Z" style="fill:none;"/></svg>