<?xml version="1.0" encoding="UTF-8" standalone="no"?>
<!DOCTYPE svg PUBLIC "-//W3C//DTD SVG 1.1//EN" "http://www.w3.org/Graphics/SVG/1.1/DTD/svg11.dtd">
<svg width="32px" height="32px" version="1.1" xmlns="http://www.w3.org/2000/svg" xmlns:xlink="http://www.w3.org/1999/xlink" xml:space="preserve" xmlns:serif="http://www.serif.com/" style="fill-rule:evenodd;clip-rule:evenodd;stroke-linejoin:round;stroke-miterlimit:2;">
    <rect id="YoungArts_Post" x="0" y="0" width="32" height="32" style="fill:none;"/>
    <clipPath id="_clip1">
        <rect x="0" y="0" width="32" height="32"/>
    </clipPath>
    <g clip-path="url(#_clip1)">
        <path id="container" d="M32,2.4L32,29.6C32,30.925 30.925,32 29.6,32L2.4,32C1.075,32 -0,30.925 -0,29.6L-0,2.4C-0,1.075 1.075,-0 2.4,-0L29.6,-0C30.925,-0 32,1.075 32,2.4ZM6.66,25.281L25.124,25.287C26.527,25.287 27.809,24.998 28,21.92L27.732,21.92C27.53,22.79 27.181,23.073 25.855,23.073L6.18,23.073C4.858,23.073 4.505,22.79 4.303,21.92L4.035,21.92C4.217,24.811 5.357,25.235 6.66,25.281ZM9.466,21.824L12.546,21.819L12.546,17.916L16.955,10.201L16.955,10.157L13.601,10.157L11.029,14.982L10.985,14.982L8.414,10.157L5.04,10.157L5.04,10.201L9.466,17.921L9.466,21.824ZM25.375,6.719L6.876,6.713C5.473,6.713 4.191,7.002 4,10.08L4.268,10.08C4.47,9.21 4.819,8.927 6.145,8.927L25.855,8.927C27.177,8.927 27.53,9.21 27.732,10.08L28,10.08C27.818,7.189 26.678,6.765 25.375,6.719ZM22.907,19.631L23.673,21.824L26.96,21.824L22.446,10.157L18.827,10.157L14.265,21.824L17.424,21.824L18.212,19.631L22.907,19.631ZM19.112,17.176L19.617,15.75C19.924,14.894 20.231,13.996 20.515,13.14L20.648,13.14C20.932,13.996 21.239,14.894 21.546,15.75L22.051,17.176L19.112,17.176Z" style="fill:#0047ab;"/>
        <path id="icon" d="M25.375,6.719C26.678,6.765 27.818,7.189 28,10.08L27.732,10.08C27.53,9.21 27.177,8.927 25.855,8.927L6.145,8.927C4.819,8.927 4.47,9.21 4.268,10.08L4,10.08C4.191,7.002 5.473,6.713 6.876,6.713L25.375,6.719ZM6.66,25.281C5.357,25.235 4.217,24.811 4.035,21.92L4.303,21.92C4.505,22.79 4.858,23.073 6.18,23.073L25.855,23.073C27.181,23.073 27.53,22.79 27.732,21.92L28,21.92C27.809,24.998 26.527,25.287 25.124,25.287L6.66,25.281ZM9.466,21.824L9.466,17.921L5.04,10.201L5.04,10.157L8.414,10.157L10.985,14.982L11.029,14.982L13.601,10.157L16.955,10.157L16.955,10.201L12.546,17.916L12.546,21.819L9.466,21.824ZM22.907,19.631L18.212,19.631L17.424,21.824L14.265,21.824L18.827,10.157L22.446,10.157L26.96,21.824L23.673,21.824L22.907,19.631ZM19.112,17.176L22.051,17.176L21.546,15.75C21.239,14.894 20.932,13.996 20.648,13.14L20.515,13.14C20.231,13.996 19.924,14.894 19.617,15.75L19.112,17.176Z" style="fill:none;"/>
    </g>
</svg>
